<svg width="254" height="104" viewBox="0 0 254 104" fill="none" xmlns="http://www.w3.org/2000/svg">
<path d="M7 97.0377L50.1631 11.0741C51.006 9.39551 53.4035 9.39956 54.2407 11.081L97.0377 97.0377" stroke="#1F1F1F" stroke-width="12.157" stroke-linecap="round"/>
<path d="M82.9811 7.00006L126.144 92.9636C126.987 94.6422 129.385 94.6382 130.222 92.9567L173.019 7.00006" stroke="#1F1F1F" stroke-width="12.157" stroke-linecap="round"/>
<path d="M202.125 11.0742L160.62 93.7354C159.859 95.2513 160.961 97.0377 162.657 97.0377H245.319C247.011 97.0377 248.114 95.2577 247.359 93.7423L206.203 11.0811C205.366 9.39958 202.968 9.39553 202.125 11.0742Z" stroke="#007447" stroke-width="12.157" stroke-linecap="round"/>
<path d="M201.837 52.8032L191.143 74.1017C190.322 75.7362 191.51 77.6626 193.339 77.6626H214.638C216.463 77.6626 217.652 75.7432 216.838 74.1091L206.234 52.8106C205.331 50.9974 202.746 50.993 201.837 52.8032Z" fill="white"/>
<circle cx="204.171" cy="65.8855" r="8.73783" fill="#4B3300"/>
</svg>
